<svg xmlns="http://www.w3.org/2000/svg" viewBox="0 0 512 512" role="img" aria-label="VisionGuard placeholder icon">
  <defs>
    <linearGradient id="g" x1="0" y1="0" x2="1" y2="1">
      <stop offset="0" stop-color="#2f66f3"/>
      <stop offset="1" stop-color="#173aa2"/>
    </linearGradient>
  </defs>
  <rect width="512" height="512" rx="112" fill="url(#g)"/>
  <path d="M112 132h72l72 210 72-210h72L292 390h-72L112 132Z" fill="#fff"/>
  <path d="M256 78c79 0 143 64 143 143 0 21-5 41-13 59l-36-24c5-11 7-23 7-35 0-56-45-101-101-101s-101 45-101 101c0 12 2 24 7 35l-36 24a142 142 0 0 1-13-59c0-79 64-143 143-143Z" fill="#b9c9ff" opacity=".78"/>
</svg>
